# xmcd CD database file
#
# Track frame offsets:
#	150
#	19452
#	39465
#	60485
#	86165
#
# Disc length: 1402 seconds
#
# Revision: 2
# Processed by: cddbd v1.4b41PL1 Copyright (c) Steve Scherf et al.
# Submitted via: Feurio! 1.60 - http://www.feurio.com
#
DISCID=33057805,3b057805
DTITLE=R. Kelly - Bump and Grind
DYEAR=1900
DGENRE=
TTITLE0=Bump N' Grind (LP Version)
TTITLE1=Bump N Grind (Old School Mix)
TTITLE2=Bump N Grind (How I Feel It Mix)
TTITLE3=Bump N Grind (How I Feel It Extended)
TTITLE4=Definition of a Hotti (Remix)
EXTD=
EXTT0=
EXTT1=
EXTT2=
EXTT3=
EXTT4=
PLAYORDER=
